SplineFontDB: 3.2
FontName: MagdalenaPranjic_
FullName: MagdalenaPranjic_
FamilyName: MagdalenaPranjic_
Weight: Regular
Copyright: Copyright (c) 2023, magda
UComments: "2023-3-20: Created with FontForge (http://fontforge.org)"
Version: 001.000
ItalicAngle: 0
UnderlinePosition: -100
UnderlineWidth: 50
Ascent: 800
Descent: 200
InvalidEm: 0
LayerCount: 2
Layer: 0 0 "Stra+AX4A-nji" 1
Layer: 1 0 "Prednji" 0
XUID: [1021 619 -1191907859 5448]
StyleMap: 0x0000
FSType: 0
OS2Version: 0
OS2_WeightWidthSlopeOnly: 0
OS2_UseTypoMetrics: 1
CreationTime: 1679342240
ModificationTime: 1679429366
OS2TypoAscent: 0
OS2TypoAOffset: 1
OS2TypoDescent: 0
OS2TypoDOffset: 1
OS2TypoLinegap: 90
OS2WinAscent: 0
OS2WinAOffset: 1
OS2WinDescent: 0
OS2WinDOffset: 1
HheadAscent: 0
HheadAOffset: 1
HheadDescent: 0
HheadDOffset: 1
OS2Vendor: 'PfEd'
MarkAttachClasses: 1
DEI: 91125
Encoding: iso8859-2
UnicodeInterp: none
NameList: AGL For New Fonts
DisplaySize: -48
AntiAlias: 1
FitToEm: 0
WinInfo: 0 38 13
BeginPrivate: 0
EndPrivate
BeginChars: 256 22

StartChar: M
Encoding: 77 77 0
Width: 730
Flags: HW
LayerCount: 2
Fore
SplineSet
32 0 m 1
 41 768 l 25
 239 768 l 1
 239 768 258.561232484 519.087198031 359 513 c 0
 458 507 503 765 503 765 c 1
 686 765 l 1
 686 765 689 -6 689 0 c 0
 689 6 520.151776478 -11.9699839957 521 0 c 0
 521.907844716 12.8113479983 599.358058722 177.872500336 521 462 c 0
 507.600330508 510.587403148 461.361451594 261.765943725 359 252 c 0
 267.221312029 243.243720288 218 471 218 471 c 5
 224.104492188 440.166015625 139.763405363 345.709494596 210 0 c 0
 211.791992188 -8.8203125 32 0 32 0 c 1
EndSplineSet
EndChar

StartChar: a
Encoding: 97 97 1
Width: 463
Flags: HW
LayerCount: 2
Fore
SplineSet
133 111 m 0
 154 74 257 124 257 124 c 1
 254 346 l 1
 254 346 160.495423457 350.297673731 140 315 c 0
 104 253 97.8564453125 172.918945312 133 111 c 0
86 4 m 0
 14.0200105017 -9.68812448589 -36.4032452171 314.67274356 82 397 c 0
 210 486 378.877929688 426.6015625 371 354 c 0
 334 13 435 -6 435 0 c 0
 435 6 298.194335938 -3.9970703125 298 2 c 0
 297.755859375 9.54296875 286.689453125 126.861328125 293 87 c 0
 299.059393555 48.7251120217 245.259141256 -5.99440120525 245 0 c 0
 244.633718764 8.47274076271 116.618592505 9.82260582018 86 4 c 0
EndSplineSet
Validated: 37
EndChar

StartChar: g
Encoding: 103 103 2
Width: 478
Flags: HW
LayerCount: 2
Fore
SplineSet
127 110 m 1
 127 110 200.596899949 104.132644433 245 114 c 0
 281 122 271.248046875 322 271 322 c 1
 155 322 l 1
 85 252 113 108 127 110 c 1
252 19 m 0
 169.466796875 -23.31640625 76.3379997878 12.5913903397 71 15 c 0
 -11 52 -25 277 77 372 c 24
 184 472 408 375 408 375 c 1
 408.177707505 375.040803934 339.358755079 -53.6469250103 411 -198 c 0
 418.332926351 -212.775433742 32.7334545537 -189.612373289 33 -198 c 1
 33 -198 0 -86 41 -100 c 0
 133.553710938 -131.603515625 169.814453125 -150.677734375 255 -102 c 0
 304 -74 294.200195312 40.63671875 252 19 c 0
EndSplineSet
Validated: 33
EndChar

StartChar: d
Encoding: 100 100 3
Width: 508
Flags: HW
LayerCount: 2
Fore
SplineSet
126 97 m 0
 159 54 313 76 313 76 c 1
 292 254 l 5
 292 254 178.820597731 333.13845286 148 293 c 0
 105 237 83.0146343392 153.011234043 126 97 c 0
108 12 m 0
 -62 18 4 365 103 398 c 0
 199.565429688 430.188476562 298 356 298 356 c 1
 298 356 288 582 309 721 c 0
 317.3774949 776.451037675 458.530528649 767.662492518 453 724 c 0
 414.040139439 416.419164947 426.616784116 -11.9183115485 450 0 c 0
 452.672836079 1.36233156573 260.525375236 6.61675146226 108 12 c 0
EndSplineSet
Validated: 37
EndChar

StartChar: l
Encoding: 108 108 4
Width: 278
Flags: HW
LayerCount: 2
Fore
SplineSet
27 15 m 0
 77.3525390625 182.7109375 9.716796875 772.681640625 33 774 c 0
 103.365234375 777.984375 171.420898438 776.038085938 161 725 c 0
 60.47265625 232.633789062 143.408203125 81.3173828125 142 79 c 1
 142 79 208.021484375 130.375 234 110 c 0
 285 70 231 -9 231 0 c 0
 231 14.7490234375 22.3525390625 -0.4794921875 27 15 c 0
EndSplineSet
Validated: 33
EndChar

StartChar: e
Encoding: 101 101 5
Width: 436
Flags: HW
LayerCount: 2
Fore
SplineSet
157 272 m 0
 192.201355416 241.416995582 238.980123252 232.685269645 291 262 c 0
 320.479265166 278.612432851 315 306 288 326 c 24
 249 355 206 356 164 332 c 24
 136 316 129.521998143 295.872940183 157 272 c 0
47 -1 m 0
 -23 -1 15 352 45 382 c 0
 115.724609375 452.724609375 263.38671875 462.6171875 369 396 c 0
 434 355 421 252 365 200 c 0
 305.354492188 144.615234375 200.628985803 135.871934346 133 196 c 0
 129.169921875 199.405273438 82.4150390625 134.71484375 119 90 c 0
 155 46 257.676757812 55.830078125 337 90 c 0
 467 146 387.4453125 -6.0302734375 393 -1 c 0
 397.447265625 3.02734375 185 -1 47 -1 c 0
EndSplineSet
Validated: 37
EndChar

StartChar: n
Encoding: 110 110 6
Width: 394
Flags: HW
LayerCount: 2
Fore
SplineSet
19 14 m 0
 98.3113743149 237.037454039 -14 424 21 433 c 0
 21.1343027309 433.034534988 92.5509386765 438.355725803 96 417 c 0
 108.183967209 341.559919783 98.7640667653 347.98649638 96 363 c 0
 91.9513213757 384.991093684 146 401 146 401 c 1
 146 401 292.51101636 448.28530813 332 377 c 0
 409 238 338 -12 338 0 c 0
 338 12 244 -12 244 0 c 0
 244 12 316.257078321 186.115932133 267 295 c 0
 248 337 151.999808134 309.000104653 134 276 c 0
 95.486328125 205.390625 152.000000245 -12 152 0 c 0
 151.999999708 14.280921784 8.210935713 -16.3407354976 19 14 c 0
EndSplineSet
Validated: 37
EndChar

StartChar: P
Encoding: 80 80 7
Width: 556
Flags: HW
LayerCount: 2
Fore
SplineSet
202 525 m 0
 257.9140625 483.064453125 272.646077101 502 359 502 c 3
 423.412731661 502 400.979049783 623.283115588 364 652 c 0
 302.389112668 699.845272944 247.271330143 692.419082065 207 647 c 0
 181.391601562 618.118164062 166 552 202 525 c 0
42 0 m 1
 42 0 8.994140625 446.951171875 46 743 c 0
 47 751 325.000007632 818.413344865 453 762 c 0
 566.483296455 711.984588117 563.90071465 452.63065857 453 396 c 0
 363.000030927 350.042158015 182.833007812 447.401367188 172 414 c 0
 100 192 221.020464627 1.67290372133 219 0 c 0
 216.689453125 -1.9130859375 85 0 42 0 c 1
EndSplineSet
Validated: 33
EndChar

StartChar: r
Encoding: 114 114 8
Width: 354
Flags: HW
LayerCount: 2
Fore
SplineSet
39 0 m 1
 31.560724405 -4.61496154543 -16 224 32 411 c 4
 37.1259765625 430.96875 126.597968048 428.854240069 112 408 c 0
 84 368 122 365 122 365 c 1
 122 365 187.021496446 418.246161349 278 402 c 0
 334 392 361.523416771 303.100449164 316 310 c 0
 267.6875 317.322265625 126.760742188 322.995117188 128 273 c 0
 131.94921875 113.650390625 140.462044259 -6.94819605465 138 0 c 0
 135.99609375 5.6552734375 39 0 39 0 c 1
EndSplineSet
Validated: 33
EndChar

StartChar: j
Encoding: 106 106 9
Width: 249
Flags: HW
LayerCount: 2
Fore
SplineSet
122 550 m 24
 107 540 103 505 118 496 c 0
 143 481 169.883368616 481.165865313 194 498 c 0
 211.723147742 510.371290642 219.928768189 540.703829761 202 554 c 0
 175.689090087 573.51245806 149 568 122 550 c 24
201 396 m 1024
96 -15 m 4
 79.2551827196 75.3653036714 67.1837951684 162.667424109 107 382 c 4
 115.274306705 427.580059953 199.282929493 458.757418982 195 417 c 0
 169.286708379 166.302272351 205.126364351 -164.318174839 208 -176 c 0
 214.410308323 -202.05901033 49.9999973772 -201.335282618 24 -189 c 0
 -12.4202655395 -171.720987932 1.18362598139 -119.669473233 21 -84 c 0
 26 -75 48.2194906109 -69.5587301899 57 -81 c 0
 90 -124 45 -134 66 -153 c 24
 84 -169 116.925664721 -162.969443307 126 -141 c 0
 145 -95 111.670197949 -99.5659986931 96 -15 c 4
EndSplineSet
Validated: 41
EndChar

StartChar: i
Encoding: 105 105 10
Width: 187
Flags: HW
LayerCount: 2
Fore
SplineSet
44 542 m 24
 28 531 22.2611899805 500.563563458 40 492 c 0
 69 478 91 478 117 496 c 24
 130 506 133.029402078 541.063352887 118 548 c 0
 92 560 68 559 44 542 c 24
60 36 m 0
 13 183 44 430 44 430 c 1
 44 430 113.554590339 436.860156695 126 398 c 0
 175 245 146 -6 146 0 c 0
 146 6 72.4266003532 -2.86617557287 60 36 c 0
EndSplineSet
Validated: 41
EndChar

StartChar: cacute
Encoding: 230 263 11
Width: 436
Flags: HW
LayerCount: 2
Fore
SplineSet
186 480 m 0
 146.288506768 453.525671179 282.640625 488.001953125 282 488 c 1
 282 488 290.306164051 531.537442701 360 578 c 0
 387 596 268 576 268 576 c 1
 268 576 234 512 186 480 c 0
33 80 m 4
 -9.53858108844 220.778320617 4.2041015625 365.1796875 118 410 c 4
 247.077148438 460.838867188 336.680664062 425.140625 392 422 c 5
 312 306 l 5
 312 306 214.59375 342.294921875 166 302 c 4
 105.700195312 251.998046875 118.360351562 179.999023438 172 131 c 4
 216.947265625 89.94140625 312 120 312 120 c 5
 383 0 l 5
 382.999995618 16.8873869729 69.9999980407 -42.4487854019 33 80 c 4
EndSplineSet
Validated: 37
EndChar

StartChar: ccaron
Encoding: 232 269 12
Width: 508
Flags: HW
LayerCount: 2
Fore
SplineSet
139 598 m 1
 139 598 164.314628877 509.574533895 203 488 c 0
 255 459 244.890625 464.186523438 296 494 c 0
 332 515 359 598 359 598 c 1
 249 540 l 1
 139 598 l 1
127 0 m 0
 -32.1240234375 0 -24.155255759 327.213840426 83 398 c 0
 252.721679688 510.1171875 421.109375 401.442382812 435 432 c 1
 351 320 l 1
 351 320 221.753423715 348.212327668 177 296 c 0
 129 240 119 184 171 132 c 0
 222 81 353 134 353 134 c 1
 353 134 425 -12 425 0 c 0
 425 12 244 0 127 0 c 0
EndSplineSet
Validated: 37
EndChar

StartChar: dcroat
Encoding: 240 273 13
Width: 524
Flags: HW
LayerCount: 2
Fore
SplineSet
142 120 m 0
 168.766601562 73.9609375 267.900390625 51.8173828125 278 104 c 0
 290 166 288 200 270 268 c 0
 256.728515625 318.138671875 142 302 142 302 c 17
 139.720703125 305.264648438 92 206 142 120 c 0
82 0 m 1
 82 0 -36.2377298268 219.496822355 50 346 c 0
 103.593789193 424.617383001 209.295628824 431.567903571 282 382 c 0
 338.602276704 343.410075513 306 558 306 558 c 1
 306 558 239.497070312 535.59765625 218 553 c 0
 197 570 212 627 212 621 c 0
 212 615 303 621 303 621 c 1
 303 621 273 700 306 751 c 24
 327 784 404 777 404 777 c 1
 404 618 l 1
 504 621 l 1
 504 621 508.4453125 570.387695312 488 556 c 0
 461 537 403 560 403 560 c 1
 411.9453125 560 358 9 404 0 c 0
 409.888565729 -1.15211068621 234 0 82 0 c 1
EndSplineSet
Validated: 37
EndChar

StartChar: zcaron
Encoding: 190 382 14
Width: 520
Flags: HW
LayerCount: 2
Fore
SplineSet
140 576 m 0
 108 554 146.48828125 506.592773438 184 498 c 0
 265.875 479.245117188 281.694335938 488.783203125 324 510 c 0
 354.405273438 525.249023438 392.929614116 544.093633901 368 568 c 0
 313.680938763 620.089509209 256.548368371 521.215271187 256 524 c 9
 256 524 175.443383328 600.367326038 140 576 c 0
488 0 m 1
 488 0 52 3 52 0 c 0
 52 -3 23 81 52 116 c 24
 140 223 286 218 330 336 c 0
 347.136738263 381.957616252 50.9999997155 328.552908169 51 333 c 1
 51 333 24.0742745863 416.676028197 64 426 c 0
 231 465 277.063476562 476.302734375 440 442 c 0
 478 434 487.862676752 342.32834594 462 310 c 0
 366 190 230.383062497 103.905030968 225 108 c 1
 225 108 379 145 474 106 c 24
 512 90 488 0 488 0 c 1
EndSplineSet
Validated: 37
EndChar

StartChar: scaron
Encoding: 185 353 15
Width: 402
Flags: HW
LayerCount: 2
Fore
SplineSet
133 570 m 1
 133 570 144.926764875 507.792988997 173 498 c 0
 216 483 219.168945312 479.6953125 259 502 c 0
 284 516 293 566 293 566 c 1
 213 524 l 1
 133 570 l 1
48 0 m 1
 59.2127746576 20.8803879211 314.550390218 -29.8483158879 359 32 c 0
 406.482782462 98.0687493842 391.786132812 202.969726562 333 250 c 0
 286.002929688 287.598632812 157.86328125 242.831054688 159 244 c 1
 159 244 148.916480965 321.196781855 177 333 c 0
 246 362 292.049319874 330.139609733 357 368 c 0
 389.409592742 386.891870373 383.49125779 407.791060403 368 424 c 0
 286.043945312 509.752929687 95.5087890625 448.749023438 71 408 c 0
 20.41796875 323.90234375 28.9033203125 279.38671875 77 198 c 0
 113.264648438 136.633789062 237 165 237 165 c 1
 225 102 l 1
 225 102 101 145 41 110 c 24
 9 92 48 0 48 0 c 1
EndSplineSet
Validated: 41
EndChar

StartChar: Zcaron
Encoding: 174 381 16
Width: 794
Flags: HW
LayerCount: 2
Fore
SplineSet
-125 831 m 1024
298 798 m 1
 297.883024603 796.878103811 302.999865917 708.999808451 333 688 c 0
 394.58984375 644.887695312 420.85546875 659.274414062 487 694 c 0
 527 715 526 801 526 801 c 1
 418 732 l 1
 298 798 l 1
49 0 m 1
 49 0 50.2673386321 133.683885305 103 177 c 0
 355 384 499.177286461 458.409045128 499 459 c 0
 475 539 63 468 63 468 c 5
 70.4887248272 466.535291433 35.3288395396 625.904562812 72 632 c 4
 370.96790732 681.694094142 697 653 708 629 c 1
 708 629 757.712227552 525.093521525 711 461 c 0
 582 284 307 152 307 152 c 1
 306.909179688 151.102539062 581.612541455 199.051502785 721 186 c 0
 819.700888564 176.758171966 718.478148161 8.4931297932 718 0 c 0
 717.494140625 -8.9853515625 301 0 49 0 c 1
EndSplineSet
EndChar

StartChar: Scaron
Encoding: 169 352 17
Width: 496
Flags: HW
LayerCount: 2
Fore
SplineSet
170 780 m 1
 170 780 186.135652824 707.306441589 218 693 c 0
 267 671 240.180664062 665.688476562 287 693 c 0
 323 714 332 777 332 777 c 1
 254 735 l 1
 170 780 l 1
57 36 m 0
 185.406055964 -11.7982764653 387.469726562 1.033203125 434 18 c 0
 467.15625 30.08984375 504.271484375 228.728515625 437 330 c 0
 387.727539062 404.176757812 201 348 201 348 c 1
 201 348 133.411577908 462.542816871 189 513 c 0
 254 572 402 471 402 471 c 1
 402 471 483.882308212 597.618978023 438 612 c 0
 304 654 169.123484866 706.894857247 78 600 c 0
 -26 478 16.2307791315 388.134189156 90 261 c 0
 137 180 312 249 312 249 c 1
 312 249 342.268554688 153.540039062 298 128 c 4
 220 83 125.968921559 222.078666069 42 189 c 0
 9 176 2.70038364025 56.2126609625 57 36 c 0
EndSplineSet
EndChar

StartChar: Dcroat
Encoding: 208 272 18
Width: 604
Flags: HW
LayerCount: 2
Fore
SplineSet
193 168 m 1
 193 168 345.97791563 154.009599637 383 238 c 0
 450 390 468.097868516 418.043062478 401 570 c 0
 367 647 197 630 197 630 c 1
 173 468 l 1
 173 468 205.015625 501.42578125 233 472 c 0
 252.390625 451.610351562 256.942757076 410.447104804 243 378 c 0
 220.622070312 325.922851562 170.680125806 379.75973502 173 380 c 1
 193 168 l 1
72 15 m 1
 72 369 l 1
 72 369 30 351 21 369 c 24
 3 403 2 435 21 468 c 24
 32 487 78 468 78 468 c 25
 84 783 l 1
 84 783 418.546944717 814.749768653 501 666 c 0
 649 399 542.104492188 143.017578125 472 103 c 0
 232 -34 51.4912109375 1.5400390625 72 15 c 1
EndSplineSet
Validated: 37
EndChar

StartChar: Ccaron
Encoding: 200 268 19
Width: 708
Flags: HW
LayerCount: 2
Fore
SplineSet
242 794 m 1
 235.280789859 794.468283378 220.966979579 725.109398843 312 718 c 0
 354.061970508 714.715089502 334.179099003 726.755761222 386 724 c 4
 435.55575161 721.364696175 445.052476825 801.40337879 442 804 c 5
 350 742 l 25
 242 794 l 1
672 68 m 1
 686.04296875 61.0546875 370.803748857 -99.3164279185 78 68 c 0
 64 76 -74.197299352 450.287192457 90 636 c 0
 235 800 651 624 651 624 c 1
 554 454 l 1
 554 454 389.110963524 529.843033076 276 450 c 0
 191 390 198.770675901 296.107660216 284 236 c 0
 393.360351562 158.874023438 582.071289062 235.986328125 582 236 c 1
 672 68 l 1
EndSplineSet
EndChar

StartChar: Cacute
Encoding: 198 262 20
Width: 732
Flags: HW
LayerCount: 2
Fore
SplineSet
384 678 m 1
 384 678 428.684895272 742.971307044 470 779 c 0
 490.99609375 797.309570312 577.599609375 780.197265625 562 785 c 1
 562 785 514 701 472 667 c 0
 451 650 384 678 384 678 c 1
687 20 m 0
 222 -45 140.180365415 86.9713396572 135 90 c 0
 8.791576318 163.786773153 -46.0907115215 454.817245719 123 589 c 0
 297.489257812 727.466796875 690.237304688 611.4921875 686 615 c 1
 686 615 608 449 574 453 c 4
 461.55885878 466.228369555 354.6640625 508.3125 285 433 c 0
 211 353 241.428735391 284.479523197 327 217 c 0
 398.298828125 160.775390625 574.470703125 213.62109375 576 211 c 1
 576 211 763.386721629 30.6777137762 687 20 c 0
EndSplineSet
EndChar

